<svg xmlns="http://www.w3.org/2000/svg" xmlns:xlink="http://www.w3.org/1999/xlink" width="512" zoomAndPan="magnify" viewBox="0 0 384 383.999986" height="512" preserveAspectRatio="xMidYMid meet" version="1.0"><defs><clipPath id="2415d5fd7a"><path d="M 123 32.640625 L 186 32.640625 L 186 268 L 123 268 Z M 123 32.640625 " clip-rule="nonzero"/></clipPath><clipPath id="e1f8afde76"><path d="M 0 189 L 384 189 L 384 345.390625 L 0 345.390625 Z M 0 189 " clip-rule="nonzero"/></clipPath></defs><path fill="#47b5ff" d="M 92.175781 146.804688 L 30.140625 180.039062 L 30.140625 265.363281 L 92.175781 225.929688 L 92.175781 146.804688 " fill-opacity="1" fill-rule="nonzero"/><path fill="#47b5ff" d="M 92.175781 303.933594 L 92.175781 303.082031 L 90.664062 303.933594 Z M 92.175781 303.933594 " fill-opacity="1" fill-rule="nonzero"/><g clip-path="url(#2415d5fd7a)"><path fill="#47b5ff" d="M 185.222656 32.523438 L 123.1875 65.757812 L 123.1875 206.894531 L 185.222656 267.425781 L 185.222656 32.523438 " fill-opacity="1" fill-rule="nonzero"/></g><path fill="#47b5ff" d="M 246.199219 238.230469 C 252.644531 234.214844 259.085938 230.257812 265.539062 226.304688 L 278.242188 218.523438 L 278.242188 72.414062 L 216.234375 105.644531 L 216.234375 257.425781 C 221.320312 254.082031 226.671875 250.617188 232.34375 246.996094 C 236.914062 244.058594 241.546875 241.121094 246.199219 238.230469 " fill-opacity="1" fill-rule="nonzero"/><g clip-path="url(#e1f8afde76)"><path fill="#ffffff" d="M 381.703125 202.207031 L 311.628906 189.773438 C 310.046875 189.484375 308.871094 191.210938 309.722656 192.578125 L 322.632812 213.488281 L 317.75 216.375 L 314.496094 218.304688 L 275.316406 242.238281 C 268.898438 246.167969 262.503906 250.113281 256.121094 254.09375 C 251.539062 256.960938 246.96875 259.835938 242.421875 262.761719 C 231.539062 269.714844 220.707031 276.777344 209.996094 284.042969 C 204.65625 287.664062 199.316406 291.332031 194.015625 295.058594 C 192.613281 296.042969 191.21875 297.0625 189.816406 298.058594 L 186.167969 294.496094 L 129.367188 239.058594 L 120.296875 230.210938 L 110.410156 236.492188 L 98.054688 244.359375 L 0.75 306.222656 L 12.445312 325.871094 L 115.015625 269.054688 L 115.03125 269.054688 L 154.4375 312.839844 L 174.59375 335.222656 L 181.898438 343.351562 L 183.578125 345.199219 L 197.792969 338.195312 C 203.613281 335.332031 209.382812 332.371094 215.09375 329.324219 C 220.816406 326.292969 226.492188 323.1875 232.152344 320.058594 C 243.464844 313.785156 254.660156 307.324219 265.792969 300.765625 C 276.9375 294.234375 287.960938 287.484375 298.972656 280.710938 L 337.976562 256.503906 L 340.207031 255.078125 L 346.035156 251.359375 L 358.382812 271.320312 C 359.210938 272.675781 361.25 272.4375 361.742188 270.914062 L 383.15625 204.613281 C 383.503906 203.535156 382.820312 202.398438 381.703125 202.207031 " fill-opacity="1" fill-rule="nonzero"/></g></svg>